<svg width="24" height="24" viewBox="0 0 24 24" fill="none" xmlns="http://www.w3.org/2000/svg">
<path d="M5 17C5.55228 17 6 16.5523 6 16C6 15.4477 5.55228 15 5 15C4.44772 15 4 15.4477 4 16C4 16.5523 4.44772 17 5 17Z" fill="black"/>
<path d="M18 20H2C0.897 20 0 19.103 0 18V14C0 12.897 0.897 12 2 12H18C19.103 12 20 12.897 20 14V18C20 19.103 19.103 20 18 20ZM2 14V18H18V14H2Z" fill="black"/>
<path d="M22 4H9.83L12.41 1.41L11 0L6 5L11 10L12.41 8.59L9.83 6H22V24H24V6C24 4.898 23.103 4 22 4Z" fill="black"/>
</svg>
