<svg width="126" height="84" viewBox="0 0 126 84" fill="none" xmlns="http://www.w3.org/2000/svg">
<rect x="0.5" width="124" height="84" rx="4" fill="#188E41" fill-opacity="0.1"/>
<path d="M62.5 12C70.4565 12 78.0871 15.1607 83.7132 20.7868C89.3393 26.4129 92.5 34.0435 92.5 42C92.5 49.9565 89.3393 57.5871 83.7132 63.2132C78.0871 68.8393 70.4565 72 62.5 72C54.5435 72 46.9129 68.8393 41.2868 63.2132C35.6607 57.5871 32.5 49.9565 32.5 42C32.5 34.0435 35.6607 26.4129 41.2868 20.7868C46.9129 15.1607 54.5435 12 62.5 12ZM58.7629 47.9186L52.0986 41.25C51.8597 41.0111 51.576 40.8216 51.2639 40.6923C50.9517 40.563 50.6172 40.4964 50.2793 40.4964C49.9414 40.4964 49.6068 40.563 49.2947 40.6923C48.9825 40.8216 48.6989 41.0111 48.46 41.25C47.9775 41.7325 47.7064 42.3869 47.7064 43.0693C47.7064 43.7516 47.9775 44.4061 48.46 44.8886L56.9457 53.3743C57.1839 53.6144 57.4674 53.805 57.7796 53.9351C58.0918 54.0651 58.4267 54.1321 58.765 54.1321C59.1033 54.1321 59.4382 54.0651 59.7504 53.9351C60.0626 53.805 60.3461 53.6144 60.5843 53.3743L78.1557 35.7986C78.3978 35.5606 78.5904 35.2771 78.7224 34.9644C78.8544 34.6517 78.9232 34.3159 78.9247 33.9765C78.9263 33.637 78.8607 33.3007 78.7316 32.9867C78.6025 32.6728 78.4126 32.3875 78.1727 32.1473C77.9328 31.9072 77.6478 31.7169 77.334 31.5874C77.0202 31.458 76.6839 31.3919 76.3444 31.3931C76.005 31.3943 75.6691 31.4627 75.3562 31.5943C75.0434 31.7259 74.7596 31.9182 74.5214 32.16L58.7629 47.9186Z" fill="#188E41"/>
<rect x="68.5" y="24" width="2.868" height="1" transform="rotate(123 68.5 24)" fill="#EAA000" fill-opacity="0.35"/>
<rect x="47.5" y="53" width="2.868" height="1" transform="rotate(173 47.5 53)" fill="#EAA000" fill-opacity="0.9"/>
<rect x="66.5" y="80" width="3.868" height="1" transform="rotate(1 66.5 80)" fill="#EAA000" fill-opacity="0.65"/>
<rect x="123.5" y="60" width="1.868" height="1" transform="rotate(19 123.5 60)" fill="#EAA000" fill-opacity="0.45"/>
<rect x="123.5" y="23" width="1" height="1" transform="rotate(-98 123.5 23)" fill="#002855" fill-opacity="0.45"/>
<rect x="118.5" y="73" width="1" height="1" transform="rotate(31 118.5 73)" fill="#EAA000" fill-opacity="0.75"/>
<rect x="106.5" y="32" width="1" height="1.84" transform="rotate(-37 106.5 32)" fill="#002855" fill-opacity="0.9"/>
<rect x="102.5" y="2" width="4.868" height="1" transform="rotate(22 102.5 2)" fill="#002855" fill-opacity="0.9"/>
<rect x="50.5" y="3" width="1.868" height="1" transform="rotate(42 50.5 3)" fill="#002855" fill-opacity="0.6"/>
<rect x="58.5" y="79" width="2.868" height="1.84" transform="rotate(97 58.5 79)" fill="#EAA000"/>
<rect x="103.5" y="46" width="2.868" height="1" transform="rotate(-140 103.5 46)" fill="#EAA000" fill-opacity="0.9"/>
<rect x="112.5" y="15" width="3.868" height="1.84" transform="rotate(-161 112.5 15)" fill="#002855" fill-opacity="0.75"/>
<rect x="48.5" y="49" width="1.868" height="1" transform="rotate(-111 48.5 49)" fill="#EAA000" fill-opacity="0.9"/>
<rect x="74.5" y="1" width="1" height="1.84" transform="rotate(54 74.5 1)" fill="#EAA000" fill-opacity="0.75"/>
<rect x="9.5" y="27" width="4.868" height="1.84" transform="rotate(-86 9.5 27)" fill="#EAA000" fill-opacity="0.65"/>
<rect x="48.5" y="25" width="2.868" height="1.84" transform="rotate(2 48.5 25)" fill="#EAA000" fill-opacity="0.85"/>
<rect x="77.5" y="51" width="2.868" height="1.84" transform="rotate(-35 77.5 51)" fill="#EAA000"/>
<rect x="11.5" y="53" width="2.868" height="1.84" transform="rotate(-163 11.5 53)" fill="#EAA000" fill-opacity="0.6"/>
<rect x="39.5" y="69" width="1.868" height="1" transform="rotate(-92 39.5 69)" fill="#EAA000" fill-opacity="0.65"/>
<rect x="40.5" y="3" width="3.868" height="1" transform="rotate(-39 40.5 3)" fill="#002855" fill-opacity="0.9"/>
<rect x="109.5" y="70" width="1.868" height="1" transform="rotate(-74 109.5 70)" fill="#EAA000" fill-opacity="0.35"/>
<rect x="12.5" y="40" width="1.868" height="1" transform="rotate(29 12.5 40)" fill="#EAA000" fill-opacity="0.65"/>
<rect x="67.5" y="67" width="2.868" height="1" transform="rotate(173 67.5 67)" fill="#EAA000" fill-opacity="0.75"/>
<circle cx="100" cy="48.5" r="0.5" fill="#002855" fill-opacity="0.9"/>
<circle cx="74" cy="10.5" r="0.5" fill="#EAA000" fill-opacity="0.85"/>
<circle cx="87" cy="71.5" r="0.5" fill="#002855" fill-opacity="0.9"/>
<circle cx="51.31" cy="33.81" r="0.81" fill="#002855" fill-opacity="0.35"/>
<circle cx="113.31" cy="0.81" r="0.81" fill="#EAA000" fill-opacity="0.9"/>
<circle cx="111" cy="69.5" r="0.5" fill="#002855"/>
<circle cx="114.31" cy="71.81" r="0.81" fill="#EAA000" fill-opacity="0.35"/>
<circle cx="85.81" cy="53.31" r="1.31" fill="#002855" fill-opacity="0.65"/>
<circle cx="20" cy="35.5" r="0.5" fill="#002855" fill-opacity="0.9"/>
<circle cx="45" cy="7.5" r="0.5" fill="#EAA000" fill-opacity="0.65"/>
<circle cx="44" cy="69.5" r="0.5" fill="#EAA000" fill-opacity="0.45"/>
<circle cx="49" cy="77.5" r="0.5" fill="#002855" fill-opacity="0.35"/>
<circle cx="69" cy="46.5" r="0.5" fill="#002855" fill-opacity="0.6"/>
<circle cx="45.31" cy="71.81" r="0.81" fill="#EAA000" fill-opacity="0.85"/>
<circle cx="115" cy="26.5" r="0.5" fill="#002855" fill-opacity="0.9"/>
<circle cx="51" cy="32.5" r="0.5" fill="#EAA000" fill-opacity="0.45"/>
<circle cx="16" cy="18.5" r="0.5" fill="#002855" fill-opacity="0.75"/>
<circle cx="40.31" cy="71.81" r="0.81" fill="#EAA000" fill-opacity="0.9"/>
<circle cx="111" cy="5.5" r="0.5" fill="#002855" fill-opacity="0.85"/>
<circle cx="66.31" cy="49.81" r="0.81" fill="#002855"/>
<circle cx="35.31" cy="41.81" r="0.81" fill="#002855" fill-opacity="0.85"/>
<circle cx="54" cy="5.5" r="0.5" fill="#002855" fill-opacity="0.65"/>
<circle cx="93.81" cy="27.31" r="1.31" fill="#EAA000" fill-opacity="0.65"/>
<path d="M66.8801 67.0108L66.327 66.0903L67.4007 66.0716L66.8801 67.0108Z" fill="#002855" fill-opacity="0.45"/>
<path d="M24.5867 34.729L25.9343 36.1245L24.052 36.5938L24.5867 34.729Z" fill="#EAA000" fill-opacity="0.85"/>
<path d="M109.005 67.6269L108.792 66.9299L109.389 66.5118L109.971 66.9505L109.734 67.6396L109.005 67.6269Z" fill="#EAA000" fill-opacity="0.6"/>
<path d="M62.446 78.6176L61.9678 79.1677L61.2969 78.8829L61.3604 78.1568L62.0706 77.9929L62.446 78.6176Z" fill="#002855"/>
<path d="M77.6547 40.7348L76.0747 40.6243L76.1852 39.0442L77.7652 39.1547L77.6547 40.7348Z" fill="#EAA000"/>
<path d="M78.0897 12.8084L78.6961 12.9373L78.8877 13.527L78.4728 13.9877L77.8664 13.8588L77.6748 13.2692L78.0897 12.8084Z" fill="#002855" fill-opacity="0.75"/>
<path d="M12.3861 82.8829L11.4077 82.0019L11.9432 80.7991L13.2526 80.9367L13.5264 82.2246L12.3861 82.8829Z" fill="#EAA000" fill-opacity="0.75"/>
<path d="M93.0648 66.5807L94.6296 67L95.0489 68.5648L93.9034 69.7103L92.3386 69.291L91.9193 67.7262L93.0648 66.5807Z" fill="#002855" fill-opacity="0.75"/>
<path d="M72.0772 83.4534L71.4843 83.6347L71.0308 83.2119L71.1703 82.6078L71.7632 82.4265L72.2166 82.8493L72.0772 83.4534Z" fill="#EAA000" fill-opacity="0.45"/>
<path d="M39.7652 45.1547L39.8757 43.5747L41.4558 43.6852L41.3453 45.2652L39.7652 45.1547Z" fill="#EAA000" fill-opacity="0.35"/>
<path d="M11.9921 57.6444L11.7301 57.0825L12.0857 56.5746L12.7034 56.6286L12.9654 57.1905L12.6098 57.6984L11.9921 57.6444Z" fill="#002855" fill-opacity="0.35"/>
<path d="M85.044 54.7102L83.1685 54.3795L82.9034 52.4936L84.6151 51.6587L85.938 53.0287L85.044 54.7102Z" fill="#002855"/>
<path d="M88.0524 74.2815L88.3901 74.8014L88.1086 75.3539L87.4895 75.3863L87.1518 74.8663L87.4333 74.3139L88.0524 74.2815Z" fill="#EAA000" fill-opacity="0.75"/>
<path d="M52.0897 78.8084L52.8709 79.2065L52.4728 79.9877L51.6916 79.5897L52.0897 78.8084Z" fill="#EAA000" fill-opacity="0.65"/>
<path d="M19.7952 38.8704L17.8791 38.5669L19.1 37.0594L19.7952 38.8704Z" fill="#002855"/>
<path d="M114.917 72.7879L114.519 72.313L114.731 71.7304L115.341 71.6227L115.74 72.0977L115.528 72.6803L114.917 72.7879Z" fill="#002855" fill-opacity="0.6"/>
<path d="M94.469 6.56238L93.795 5.66791L94.2326 4.63694L95.3443 4.50045L96.0183 5.39492L95.5807 6.42589L94.469 6.56238Z" fill="#EAA000" fill-opacity="0.6"/>
<path d="M71.6365 3.11165L70.9982 4.26321L69.7057 4.01198L69.5453 2.70516L70.7385 2.14872L71.6365 3.11165Z" fill="#002855" fill-opacity="0.85"/>
<path d="M116.118 62.946L116.68 63.208L116.734 63.8256L116.226 64.1812L115.664 63.9192L115.61 63.3016L116.118 62.946Z" fill="#EAA000" fill-opacity="0.6"/>
<path d="M107.439 25.39L108.989 25.7193L108.659 27.2686L107.11 26.9393L107.439 25.39Z" fill="#EAA000" fill-opacity="0.85"/>
<path d="M10.0772 21.4534L9.48425 21.6347L9.03081 21.2119L9.17028 20.6078L9.76319 20.4265L10.2166 20.8493L10.0772 21.4534Z" fill="#EAA000" fill-opacity="0.45"/>
<path d="M19.3826 75.6895L19.1126 77.6106L17.5839 76.4162L19.3826 75.6895Z" fill="#EAA000" fill-opacity="0.45"/>
<path d="M45.6916 4.58966L45.2935 5.3709L44.5123 4.97284L44.9103 4.19159L45.6916 4.58966Z" fill="#EAA000" fill-opacity="0.9"/>
<path d="M77.5066 70.509L78.1369 71.1112L79.0043 71.0247L78.4021 71.655L78.4886 72.5223L77.8583 71.9202L76.991 72.0066L77.5931 71.3764L77.5066 70.509Z" fill="#EAA000" fill-opacity="0.9"/>
<path d="M11.4348 16.3461L10.9998 15.6994L10.3393 16.1132L10.6819 15.4131L9.99319 15.0481L10.7708 14.9947L10.7426 14.2157L11.1777 14.8625L11.8381 14.4486L11.4956 15.1487L12.1842 15.5138L11.4066 15.5672L11.4348 16.3461Z" fill="#EAA000" fill-opacity="0.9"/>
<path d="M77.3291 4.59598L76.8976 4.59544L76.8831 5.02667L76.6678 4.65273L76.2871 4.85578L76.5033 4.48238L76.1371 4.25419L76.5686 4.25473L76.5831 3.8235L76.7984 4.19744L77.1791 3.9944L76.9629 4.3678L77.3291 4.59598Z" fill="#002855" fill-opacity="0.45"/>
<path d="M38.2478 53.4336L38.5787 53.1567L38.3126 52.817L38.7179 52.9651L38.879 52.5648L38.9534 52.9898L39.3806 52.9292L39.0497 53.2062L39.3158 53.5459L38.9105 53.3978L38.7494 53.798L38.675 53.373L38.2478 53.4336Z" fill="#EAA000" fill-opacity="0.35"/>
<path d="M70.114 58.9137L70.289 59.3081L70.6888 59.146L70.4348 59.4947L70.7751 59.7599L70.3461 59.7143L70.2865 60.1416L70.1115 59.7473L69.7117 59.9094L69.9657 59.5606L69.6254 59.2954L70.0545 59.3411L70.114 58.9137Z" fill="#EAA000" fill-opacity="0.85"/>
<path d="M24.3861 70.1171L24.0552 69.3737L23.2459 69.4588L23.8506 68.9143L23.5196 68.1709L24.2243 68.5777L24.8291 68.0333L24.6599 68.8292L25.3646 69.2361L24.5553 69.3211L24.3861 70.1171Z" fill="#002855"/>
<path d="M119.531 24.4376L119.435 25.2111L120.205 25.3321L119.487 25.6357L119.767 26.3631L119.145 25.8932L118.656 26.4995L118.752 25.726L117.982 25.6051L118.7 25.3014L118.419 24.5741L119.041 25.044L119.531 24.4376Z" fill="#002855" fill-opacity="0.35"/>
<path d="M66.096 78.1709L66.1322 78.6521L66.5211 78.9378L66.0399 78.974L65.7542 79.3629L65.718 78.8817L65.3291 78.596L65.8103 78.5598L66.096 78.1709Z" fill="#EAA000" fill-opacity="0.6"/>
<path d="M125.09 36.1916L125.109 36.6737L125.488 36.9728L125.006 36.9923L124.706 37.3709L124.687 36.8888L124.308 36.5897L124.791 36.5702L125.09 36.1916Z" fill="#002855" fill-opacity="0.6"/>
<path d="M37.8556 82.5079L37.5837 82.8429L37.9097 83.1255L37.4836 83.0575L37.4018 83.4811L37.2477 83.0781L36.8399 83.2191L37.1118 82.8841L36.7858 82.6015L37.2119 82.6695L37.2937 82.2459L37.4478 82.6489L37.8556 82.5079Z" fill="#EAA000" fill-opacity="0.45"/>
<path d="M51.0954 65.7187L51.5883 66.7326L52.6177 66.2728L51.9861 67.2066L52.899 67.8682L51.7744 67.7881L51.658 68.9095L51.1651 67.8955L50.1357 68.3554L50.7673 67.4215L49.8544 66.76L50.979 66.8401L51.0954 65.7187Z" fill="#EAA000" fill-opacity="0.35"/>
<path d="M118.974 76.0111L119.539 75.4258L119.157 74.7073L119.889 75.064L120.454 74.4786L120.341 75.2844L121.072 75.6412L120.271 75.7825L120.158 76.5883L119.776 75.8698L118.974 76.0111Z" fill="#EAA000" fill-opacity="0.65"/>
<path d="M56.5711 49.6725L57.0378 50.3391L57.816 50.1012L57.3263 50.7511L57.793 51.4176L57.0236 51.1527L56.5339 51.8026L56.5481 50.989L55.7787 50.7241L56.5569 50.4861L56.5711 49.6725Z" fill="#EAA000" fill-opacity="0.65"/>
<path d="M3.04445 27.9768L3.64917 27.4323L3.3182 26.689L4.02291 27.0958L4.62763 26.5513L4.45844 27.3473L5.16315 27.7541L4.35388 27.8392L4.1847 28.6351L3.85372 27.8918L3.04445 27.9768Z" fill="#EAA000" fill-opacity="0.65"/>
<path d="M77.4699 37.56L77.3008 38.3559L78.0055 38.7628L77.1962 38.8479L77.027 39.6438L76.696 38.9004L75.8868 38.9855L76.4915 38.441L76.1605 37.6976L76.8652 38.1045L77.4699 37.56Z" fill="#EAA000" fill-opacity="0.9"/>
<path d="M105.108 50.5719L103.855 50.7104L103.144 51.7518L103.006 50.4987L101.964 49.7881L103.218 49.6496L103.928 48.6081L104.067 49.8613L105.108 50.5719Z" fill="#EAA000" fill-opacity="0.85"/>
<path d="M43.1913 67.0766L42.3781 67.105L42.1538 67.8872L41.8754 67.1226L41.0622 67.151L41.7034 66.65L41.4251 65.8853L42.0997 66.3404L42.741 65.8394L42.5167 66.6216L43.1913 67.0766Z" fill="#002855" fill-opacity="0.35"/>
<path d="M17.4784 16.6196L17.0596 16.7235L17.1498 17.1454L16.8505 16.8347L16.5302 17.1238L16.6496 16.7092L16.2391 16.5763L16.6579 16.4725L16.5677 16.0506L16.867 16.3613L17.1873 16.0722L17.0678 16.4868L17.4784 16.6196Z" fill="#002855"/>
<path d="M39.6174 40.3105L39.8824 39.48L39.4244 38.7383L40.2548 39.0033L40.9965 38.5453L40.7316 39.3758L41.1895 40.1174L40.3591 39.8525L39.6174 40.3105Z" fill="#EAA000" fill-opacity="0.65"/>
<path d="M17.5781 26.1173L16.8237 26.4221L16.8804 27.2338L16.3574 26.6105L15.6029 26.9153L16.0341 26.2252L15.511 25.6019L16.3006 25.7987L16.7318 25.1087L16.7886 25.9204L17.5781 26.1173Z" fill="#002855" fill-opacity="0.45"/>
<path d="M74.0573 43.7282L74.3702 44.0522L74.775 43.8548L74.5636 44.2525L74.8765 44.5765L74.4329 44.4983L74.2214 44.896L74.1587 44.45L73.7151 44.3717L74.1199 44.1743L74.0573 43.7282Z" fill="#002855" fill-opacity="0.6"/>
<path d="M78.4805 31.1198L77.6578 31.408L77.3411 32.2201L77.0529 31.3975L76.2408 31.0807L77.0634 30.7925L77.3802 29.9805L77.6684 30.8031L78.4805 31.1198Z" fill="#EAA000" fill-opacity="0.65"/>
<path d="M10.8644 35.5016L10.5984 35.8413L10.9292 36.1182L10.502 36.0576L10.4276 36.4826L10.2665 36.0824L9.86125 36.2304L10.1273 35.8908L9.79644 35.6138L10.2236 35.6744L10.298 35.2494L10.4592 35.6497L10.8644 35.5016Z" fill="#002855"/>
</svg>
