<svg width="16" height="17" viewBox="0 0 16 17" fill="none" xmlns="http://www.w3.org/2000/svg">
<g clip-path="url(#clip0_1_7276)">
<path d="M0.661255 6.72404V10.474C0.661669 10.9012 0.831558 11.3108 1.13364 11.6129C1.43571 11.915 1.8453 12.0849 2.2725 12.0853H3.38969V12.4537C3.38959 12.6276 3.44107 12.7975 3.5376 12.9421C3.63414 13.0866 3.7714 13.1993 3.932 13.2658C4.0926 13.3323 4.26933 13.3497 4.43981 13.3157C4.61029 13.2818 4.76686 13.198 4.88969 13.075L5.87938 12.0853H9.03844C9.46559 12.0848 9.8751 11.9149 10.1771 11.6128C10.4791 11.3107 10.649 10.9012 10.6494 10.474V6.72404C10.649 6.29689 10.4791 5.88735 10.1771 5.58528C9.8751 5.28321 9.46559 5.11329 9.03844 5.11279H2.2725C1.8453 5.11321 1.43571 5.2831 1.13364 5.58517C0.831558 5.88725 0.661669 6.29684 0.661255 6.72404ZM1.47375 6.72404C1.474 6.51228 1.55824 6.30926 1.70798 6.15952C1.85772 6.00977 2.06074 5.92554 2.2725 5.92529H9.03844C9.25018 5.92554 9.45317 6.00978 9.60286 6.15953C9.75255 6.30928 9.83671 6.51231 9.83688 6.72404V10.474C9.83671 10.6858 9.75255 10.8888 9.60286 11.0386C9.45317 11.1883 9.25018 11.2725 9.03844 11.2728H5.71094C5.60321 11.2728 5.49991 11.3157 5.42375 11.3919L4.315 12.5C4.30908 12.5063 4.30191 12.5113 4.29395 12.5147C4.28598 12.5181 4.27741 12.5198 4.26875 12.5197C4.25984 12.5196 4.25103 12.5178 4.24282 12.5144C4.23045 12.5094 4.21992 12.5007 4.21266 12.4895C4.20539 12.4783 4.20174 12.4652 4.20219 12.4519V11.6775C4.20219 11.5697 4.15939 11.4664 4.0832 11.3902C4.00702 11.314 3.90369 11.2712 3.79594 11.2712H2.2725C2.06071 11.2711 1.85765 11.1869 1.70789 11.0371C1.55813 10.8873 1.47392 10.6843 1.47375 10.4725V6.72404Z" fill="#575151"/>
<path d="M3.23474 8.03967H8.0763C8.18405 8.03967 8.28738 7.99687 8.36357 7.92068C8.43975 7.8445 8.48255 7.74117 8.48255 7.63342C8.48255 7.52568 8.43975 7.42235 8.36357 7.34616C8.28738 7.26997 8.18405 7.22717 8.0763 7.22717H3.23474C3.127 7.22717 3.02367 7.26997 2.94748 7.34616C2.87129 7.42235 2.82849 7.52568 2.82849 7.63342C2.82849 7.74117 2.87129 7.8445 2.94748 7.92068C3.02367 7.99687 3.127 8.03967 3.23474 8.03967Z" fill="#575151"/>
<path d="M3.23474 9.78656H6.51599C6.62374 9.78656 6.72707 9.74376 6.80325 9.66757C6.87944 9.59139 6.92224 9.48805 6.92224 9.38031C6.92224 9.27257 6.87944 9.16923 6.80325 9.09305C6.72707 9.01686 6.62374 8.97406 6.51599 8.97406H3.23474C3.127 8.97406 3.02367 9.01686 2.94748 9.09305C2.87129 9.16923 2.82849 9.27257 2.82849 9.38031C2.82849 9.48805 2.87129 9.59139 2.94748 9.66757C3.02367 9.74376 3.127 9.78656 3.23474 9.78656Z" fill="#575151"/>
<path d="M9.72722 13.6194H9.59378C9.47934 13.4982 9.34133 13.4016 9.18823 13.3357C9.03513 13.2697 8.87017 13.2358 8.70347 13.2359H7.26816C6.94022 13.2363 6.62581 13.3667 6.39392 13.5986C6.16203 13.8305 6.03161 14.1449 6.03128 14.4728V15.2634C6.03169 15.5913 6.16215 15.9056 6.39403 16.1375C6.62591 16.3693 6.94027 16.4997 7.26816 16.5H8.70316C8.86991 16.5002 9.03493 16.4662 9.18809 16.4003C9.34125 16.3344 9.47931 16.2378 9.59378 16.1166H9.72784C10.93 16.1152 12.0895 15.6711 12.9849 14.8689C13.8802 14.0668 14.4487 12.9629 14.5816 11.7681C14.5981 11.7569 14.6143 11.7453 14.6303 11.7334C15.0744 11.4091 15.3238 10.9522 15.3319 10.4425C15.3407 9.86187 15.3413 9.24999 15.3319 8.62312C15.328 8.22211 15.1716 7.83763 14.8944 7.5478C14.89 5.74999 14.2719 4.15624 13.0585 2.80218C12.0328 1.65811 10.7707 0.935303 9.30597 0.654053C7.95628 0.39624 6.69253 0.463428 5.55003 0.85374C4.40753 1.24405 3.37222 1.9628 2.47378 2.98905C2.27623 3.21553 2.09355 3.45458 1.92691 3.70468C1.86702 3.79427 1.84519 3.90398 1.8662 4.00968C1.88721 4.11537 1.94934 4.20839 2.03894 4.26827C2.12853 4.32815 2.23824 4.34999 2.34394 4.32898C2.44963 4.30797 2.54265 4.24583 2.60253 4.15624C2.74945 3.93527 2.91074 3.72419 3.08534 3.52436C4.69284 1.68749 6.73472 0.990303 9.15316 1.45218C10.4375 1.69905 11.5491 2.33562 12.4535 3.34374C13.566 4.58468 14.1144 6.05468 14.0828 7.71312C14.0817 7.77393 14.0942 7.83422 14.1195 7.88956C14.1447 7.94489 14.1821 7.99384 14.2288 8.0328C14.319 8.1049 14.392 8.19619 14.4424 8.30003C14.4929 8.40387 14.5197 8.51766 14.5207 8.63312C14.5285 9.25218 14.5278 9.85655 14.5207 10.4291C14.5166 10.6834 14.3925 10.9012 14.1513 11.0775C14.1044 11.1122 14.0551 11.1435 14.0038 11.1712C13.9432 11.2038 13.8919 11.2513 13.8547 11.3091C13.8175 11.3669 13.7956 11.4332 13.791 11.5019C13.6482 13.6341 11.8635 15.3044 9.72847 15.3044H9.39753C9.32939 15.3044 9.26237 15.3217 9.20263 15.3544C9.14289 15.3872 9.09234 15.4344 9.05566 15.4919C9.01771 15.5511 8.96563 15.6 8.9041 15.6342C8.84257 15.6683 8.77352 15.6866 8.70316 15.6875H7.26816C7.15563 15.6874 7.04774 15.6427 6.96817 15.5631C6.8886 15.4835 6.84386 15.3756 6.84378 15.2631V14.4725C6.84386 14.36 6.8886 14.2521 6.96817 14.1725C7.04774 14.0929 7.15563 14.0482 7.26816 14.0481H8.70316C8.77361 14.0491 8.84271 14.0675 8.90425 14.1018C8.96578 14.1362 9.01782 14.1852 9.05566 14.2447C9.09234 14.3021 9.14289 14.3494 9.20263 14.3821C9.26237 14.4149 9.32939 14.4321 9.39753 14.4322H9.72722C10.5214 14.4286 11.2863 14.1316 11.8747 13.5981C12.4631 13.0647 12.8335 12.3325 12.9147 11.5425C12.9213 11.4762 12.9114 11.4093 12.886 11.3477C12.8606 11.2862 12.8205 11.2318 12.7691 11.1894C12.6525 11.0897 12.5664 10.959 12.521 10.8125C12.4739 10.6702 12.4483 10.5217 12.445 10.3719C12.4375 9.84311 12.4375 9.28749 12.445 8.67249C12.4468 8.53172 12.4693 8.39198 12.5119 8.2578C12.5938 8.00249 12.7444 7.8328 12.9603 7.75374C13.0418 7.72389 13.1116 7.66874 13.1594 7.59636C13.2073 7.52399 13.2307 7.4382 13.2263 7.35155L13.2247 7.3203C13.2183 7.08777 13.1974 6.85587 13.1622 6.62593C12.6507 3.72624 9.98378 1.7878 7.09034 2.21093C5.91128 2.38343 4.91034 2.86405 4.11566 3.63968C4.03854 3.71493 3.99447 3.81774 3.99315 3.92549C3.99183 4.03323 4.03337 4.13709 4.10862 4.21421C4.18388 4.29133 4.28669 4.33539 4.39443 4.33671C4.50218 4.33803 4.60604 4.2965 4.68316 4.22124C5.35253 3.5678 6.20191 3.16186 7.20784 3.01499C9.66316 2.65562 11.9266 4.30311 12.361 6.76499C12.3804 6.88421 12.3936 7.00438 12.4003 7.12499C12.0878 7.3178 11.8632 7.61811 11.7382 8.00811C11.671 8.21943 11.6354 8.43952 11.6325 8.66124C11.625 9.28312 11.625 9.84562 11.6325 10.38C11.6375 10.6121 11.6771 10.8421 11.75 11.0625C11.8193 11.2781 11.9319 11.4773 12.081 11.6478C11.8775 12.7681 10.8785 13.6194 9.72722 13.6194Z" fill="#575151"/>
</g>
<defs>
<clipPath id="clip0_1_7276">
<rect width="16" height="16" fill="white" transform="translate(0 0.5)"/>
</clipPath>
</defs>
</svg>
