<svg width="47" height="46" viewBox="0 0 47 46" fill="none" xmlns="http://www.w3.org/2000/svg">
<rect x="3.5" y="3" width="40" height="40" rx="20" fill="#F2F4F7"/>
<rect x="3.5" y="3" width="40" height="40" rx="20" stroke="#F9FAFB" stroke-width="6"/>
<g clip-path="url(#clip0_24_392)">
<path d="M26.8333 26.3334L23.5 23M23.5 23L20.1667 26.3334M23.5 23V30.5M30.4917 28.325C31.3044 27.8819 31.9465 27.1808 32.3166 26.3322C32.6866 25.4837 32.7635 24.5361 32.5352 23.6389C32.3068 22.7418 31.7862 21.9463 31.0556 21.3779C30.3249 20.8095 29.4257 20.5006 28.5 20.5H27.45C27.1978 19.5244 26.7276 18.6186 26.075 17.8509C25.4223 17.0831 24.604 16.4732 23.6817 16.0672C22.7595 15.6612 21.7571 15.4695 20.7501 15.5066C19.7431 15.5437 18.7576 15.8086 17.8676 16.2814C16.9777 16.7542 16.2066 17.4226 15.6122 18.2363C15.0178 19.0501 14.6156 19.988 14.4358 20.9795C14.2561 21.9711 14.3034 22.9905 14.5743 23.9611C14.8453 24.9317 15.3327 25.8282 16 26.5834" stroke="#475467" stroke-width="1.66667" stroke-linecap="round" stroke-linejoin="round"/>
</g>
<defs>
<clipPath id="clip0_24_392">
<rect width="20" height="20" fill="white" transform="translate(13.5 13)"/>
</clipPath>
</defs>
</svg>
