<svg width="167" height="166" viewBox="0 0 167 166" fill="none" xmlns="http://www.w3.org/2000/svg">
<path d="M146.656 112.375V126.105C146.657 128.606 146.164 131.083 145.207 133.394C144.25 135.705 142.848 137.805 141.079 139.574C139.311 141.343 137.211 142.746 134.9 143.703C132.589 144.66 130.112 145.153 127.611 145.153H35.1075C32.606 145.155 30.1286 144.664 27.8172 143.707C25.5057 142.751 23.4055 141.348 21.6366 139.579C19.8678 137.81 18.465 135.71 17.5085 133.398C16.5521 131.087 16.0607 128.61 16.0625 126.108V69.509C16.0625 64.458 18.069 59.6138 21.6407 56.0422C25.2123 52.4705 30.0565 50.464 35.1075 50.464H127.611C132.661 50.4667 137.504 52.4741 141.075 56.0452C144.646 59.6162 146.653 64.4588 146.656 69.509V83.2386" stroke="#162D4C" stroke-width="3" stroke-linecap="round" stroke-linejoin="round"/>
<path d="M129.945 50.6161L124.92 33.2968L57.7838 50.4709M111.519 36.724L104.208 20.8468L45.0295 50.4709M106.249 82.0489H142.319C144.605 82.0508 146.797 82.9598 148.412 84.5764C150.028 86.193 150.937 88.3848 150.937 90.6706V104.953C150.937 107.24 150.028 109.432 148.411 111.049C146.795 112.666 144.602 113.574 142.316 113.575H106.245C103.162 113.572 100.206 112.346 98.0258 110.165C95.8458 107.985 94.6204 105.028 94.6185 101.945V93.6793C94.6204 90.5953 95.8463 87.6381 98.027 85.4574C100.208 83.2767 103.165 82.0508 106.249 82.0489Z" stroke="#002855" stroke-width="2" stroke-linecap="round" stroke-linejoin="round"/>
<path d="M109.514 105.362C113.683 105.362 117.063 101.982 117.063 97.8121C117.063 93.6426 113.683 90.2625 109.514 90.2625C105.344 90.2625 101.964 93.6426 101.964 97.8121C101.964 101.982 105.344 105.362 109.514 105.362Z" stroke="#EAA000" stroke-linecap="round" stroke-linejoin="round"/>
</svg>
